<?xml version="1.0" standalone="no"?>
<!DOCTYPE svg PUBLIC "-//W3C//DTD SVG 20010904//EN"
 "http://www.w3.org/TR/2001/REC-SVG-20010904/DTD/svg10.dtd">
<svg version="1.0" xmlns="http://www.w3.org/2000/svg"
 width="700.000000pt" height="700.000000pt" viewBox="0 0 700.000000 700.000000"
 preserveAspectRatio="xMidYMid meet">
<metadata>
Created by potrace 1.14, written by Peter Selinger 2001-2017
</metadata>
<g transform="translate(0.000000,700.000000) scale(0.100000,-0.100000)"
fill="#000000" stroke="none">
<path d="M3509 6155 c-3 -2 -52 -5 -109 -6 -265 -5 -562 -97 -795 -246 -114
-74 -200 -147 -387 -334 l-178 -177 415 -415 c228 -229 415 -418 415 -421 0
-2 -10 -3 -22 -1 -37 5 -167 22 -278 35 -77 9 -482 6 -535 -4 -16 -3 -59 -10
-95 -15 -77 -12 -109 -18 -170 -31 -25 -6 -54 -12 -65 -14 -118 -23 -338 -104
-512 -187 -293 -141 -489 -288 -805 -601 l-202 -200 1160 -1157 c1141 -1140
1213 -1208 1374 -1307 178 -108 434 -196 641 -219 56 -6 307 -7 335 -1 12 2
45 7 75 11 162 19 432 109 531 177 14 10 29 18 32 18 14 0 165 105 231 161 38
33 144 134 235 224 l165 165 -415 416 -415 416 55 -7 c30 -3 71 -8 90 -11 19
-2 51 -6 70 -8 240 -30 535 -23 760 18 19 3 46 8 60 10 181 29 463 126 673
232 277 139 458 276 767 580 l205 202 -1145 1144 c-969 968 -1195 1189 -1285
1256 -144 106 -413 227 -575 257 -14 3 -38 8 -55 11 -44 9 -72 12 -155 20 -41
3 -78 8 -81 10 -3 2 -8 2 -10 -1z m156 -439 c17 -4 48 -12 70 -18 22 -5 47
-12 55 -13 106 -23 313 -133 415 -220 17 -14 476 -471 1021 -1015 l991 -990
-71 -66 c-346 -324 -829 -534 -1306 -570 -67 -5 -320 -4 -360 1 -19 2 -57 6
-85 9 -27 3 -66 8 -85 10 -40 6 -176 24 -235 31 -22 3 -53 7 -70 9 -64 10
-118 17 -350 46 -300 38 -312 39 -355 45 -19 3 -55 7 -80 10 -25 3 -74 9 -110
14 -36 6 -84 12 -108 16 -42 5 -31 -6 662 -699 l705 -705 -57 -51 c-153 -138
-394 -252 -580 -275 -26 -4 -58 -8 -72 -11 -14 -2 -72 -4 -130 -4 -241 -1
-491 83 -690 231 -77 56 -2050 2019 -2050 2038 0 6 35 41 77 78 286 251 582
407 943 498 84 21 128 30 263 50 68 11 396 14 472 5 150 -18 216 -26 270 -34
22 -3 56 -8 75 -10 288 -36 429 -55 470 -61 34 -5 174 -23 235 -30 28 -3 61
-8 75 -10 14 -3 48 -7 75 -10 28 -3 61 -7 75 -10 14 -2 50 -7 80 -10 30 -4 74
-10 98 -15 23 -4 42 -5 42 -1 0 3 -316 322 -702 708 l-702 702 24 27 c41 43
160 128 241 173 117 64 265 114 374 128 22 2 42 7 45 10 7 7 306 -3 345 -11z"/>
</g>
</svg>
